<svg width="39" height="39" viewBox="0 0 39 39" fill="none" xmlns="http://www.w3.org/2000/svg">
<path d="M26.2031 1.625C24.3295 1.73388 22.1785 2.77768 20.8997 4.10693C19.7443 5.31593 18.8327 7.11151 19.2048 8.84863C21.241 8.90226 23.2847 7.83141 24.5083 6.47778C25.6507 5.21191 26.5168 3.445 26.2031 1.625ZM26.3142 8.84546C23.3746 8.84546 22.1455 10.6514 20.1094 10.6514C18.0148 10.6514 16.0999 8.95972 13.5649 8.95972C10.1167 8.96134 4.875 12.1555 4.875 19.6809C4.875 26.527 11.0787 34.125 14.5806 34.125C16.7077 34.1461 17.2234 32.7876 20.1094 32.7729C22.9986 32.7518 23.6221 34.1429 25.7524 34.125C28.1509 34.1071 30.0241 31.4714 31.3923 29.3833C32.3738 27.8883 32.7773 27.1251 33.5378 25.4351C27.8942 24.0051 26.7713 14.904 33.5378 13.0222C32.2606 10.8431 28.5323 8.84546 26.3142 8.84546Z" fill="black"/>
</svg>
