<svg width="39" height="39" viewBox="0 0 39 39" fill="none" xmlns="http://www.w3.org/2000/svg">
<g clip-path="url(#clip0_1_20)">
<path d="M29.25 9.75H26C26 6.15875 23.0912 3.25 19.5 3.25C15.9087 3.25 13 6.15875 13 9.75H9.75C7.9625 9.75 6.5 11.2125 6.5 13V32.5C6.5 34.2875 7.9625 35.75 9.75 35.75H29.25C31.0375 35.75 32.5 34.2875 32.5 32.5V13C32.5 11.2125 31.0375 9.75 29.25 9.75ZM16.25 16.25C16.25 17.1438 15.5188 17.875 14.625 17.875C13.7312 17.875 13 17.1438 13 16.25V13H16.25V16.25ZM19.5 6.5C21.2875 6.5 22.75 7.9625 22.75 9.75H16.25C16.25 7.9625 17.7125 6.5 19.5 6.5ZM26 16.25C26 17.1438 25.2687 17.875 24.375 17.875C23.4813 17.875 22.75 17.1438 22.75 16.25V13H26V16.25Z" fill="#606060"/>
</g>
<defs>
<clipPath id="clip0_1_20">
<rect width="39" height="39" fill="white"/>
</clipPath>
</defs>
</svg>
